<svg width="1439" height="1080" viewBox="0 0 1439 1080" fill="none" xmlns="http://www.w3.org/2000/svg">
<g clip-path="url(#clip0_424_3)">
<rect width="1439" height="1080" fill="#2B004D"/>
<path d="M1440.61 71.1734C794.716 313.705 -109.538 830.465 1440.61 957.248V71.1734Z" fill="white"/>
<path d="M1439 203.027C857.375 434.263 267.016 750.565 1439 879.149V203.027Z" fill="#2B004D"/>
<path d="M1439 303.578C958.524 485.728 597.599 704.522 1439 814.087V303.578Z" fill="white"/>
<path d="M1438.5 373.958C1124.69 507.87 882.75 670.327 1438.5 750.298V373.958Z" fill="#2B004D"/>
<circle r="2.56647" transform="matrix(-1 0 0 1 827.867 685.202)" fill="white"/>
<circle r="2.56647" transform="matrix(-1 0 0 1 1391.21 621.04)" fill="white"/>
<circle r="2.56647" transform="matrix(-1 0 0 1 585.335 109.029)" fill="white"/>
<circle r="2.56647" transform="matrix(-1 0 0 1 265.809 786.578)" fill="white"/>
<circle r="2.56647" transform="matrix(-1 0 0 1 1065.27 931.584)" fill="white"/>
<circle r="2.56647" transform="matrix(-1 0 0 1 845.832 229.653)" fill="white"/>
<circle r="2.56647" transform="matrix(-1 0 0 1 328.566 444.566)" fill="white"/>
<circle r="2.56647" transform="matrix(-1 0 0 1 735.474 370.809)" fill="white"/>
<circle cx="751.514" cy="733.323" r="1.92485" fill="#2B004D"/>
<circle cx="1379.02" cy="116.087" r="1.92485" fill="#2B004D"/>
<circle cx="1012.01" cy="823.15" r="1.92485" fill="#2B004D"/>
<circle cx="1083.87" cy="155.867" r="22.4566" fill="#FFB61D"/>
<circle cx="883.342" cy="487.88" r="32.7225" transform="rotate(18.3001 883.342 487.88)" fill="#FFB61D"/>
<path d="M893.617 456.813C876.459 451.138 858.117 459.94 852.275 477.605C849.337 486.488 849.428 492.959 853.143 501.545C854.553 497.281 904.385 463.077 904.385 463.077C904.385 463.077 902.754 459.834 893.617 456.813Z" fill="#2B004D"/>
<circle cx="754.08" cy="811.601" r="4.49133" fill="#2B004D"/>
<circle cx="1004.31" cy="621.682" r="3.20809" fill="#2B004D"/>
<circle cx="1155.73" cy="288.04" r="4.49133" fill="#2B004D"/>
<rect x="1031.9" y="422.467" width="1.94117" height="1.94117" rx="0.265094" transform="rotate(-24.4476 1031.9 422.467)" fill="white"/>
<rect x="648.213" y="810.004" width="3.89396" height="3.89396" rx="0.531777" transform="rotate(-24.4476 648.213 810.004)" fill="white"/>
<rect x="1337.31" y="1020.46" width="3.89396" height="3.89396" rx="0.531777" transform="rotate(-24.4476 1337.31 1020.46)" fill="white"/>
<rect x="168.283" y="182.502" width="3.89396" height="3.89396" rx="0.531777" transform="rotate(-24.4476 168.283 182.502)" fill="white"/>
<rect x="789.067" y="480.567" width="3.37824" height="3.37824" rx="0.481997" transform="rotate(35.3063 789.067 480.567)" fill="#2B004D"/>
<rect x="884.994" y="778.789" width="4.02097" height="4.02097" rx="0.619105" transform="rotate(30.4542 884.994 778.789)" fill="#2B004D"/>
<rect x="1301.38" y="920.415" width="4.02097" height="4.02097" rx="0.619105" transform="rotate(-24.4476 1301.38 920.415)" fill="#2B004D"/>
<rect x="1339.88" y="364.774" width="4.02097" height="4.02097" rx="0.619105" transform="rotate(-24.4476 1339.88 364.774)" fill="#2B004D"/>
<path d="M1377.83 57.1226C1378.21 56.9515 1378.63 57.2551 1378.59 57.6692L1378.3 60.543C1378.26 60.9571 1377.79 61.1709 1377.45 60.928L1375.1 59.2418C1374.77 58.9989 1374.82 58.4814 1375.2 58.3103L1377.83 57.1226Z" fill="white"/>
<path d="M1308.53 458.776C1308.91 458.605 1309.34 458.908 1309.29 459.322L1309.01 462.196C1308.97 462.61 1308.49 462.824 1308.15 462.581L1305.81 460.895C1305.47 460.652 1305.52 460.134 1305.9 459.963L1308.53 458.776Z" fill="white"/>
<path d="M849.655 593.618C849.785 593.861 849.744 594.159 849.553 594.358L847.5 596.496C847.31 596.695 847.013 596.748 846.766 596.628L844.098 595.336C843.85 595.217 843.708 594.951 843.745 594.678L844.149 591.742C844.186 591.469 844.395 591.252 844.666 591.203L847.584 590.68C847.854 590.631 848.126 590.762 848.256 591.005L849.655 593.618Z" fill="white"/>
<path d="M1244.59 116.528C1244.86 116.527 1245.11 116.703 1245.19 116.964L1246.12 119.779C1246.21 120.04 1246.12 120.327 1245.9 120.49L1243.51 122.244C1243.28 122.407 1242.98 122.408 1242.76 122.247L1240.35 120.517C1240.13 120.356 1240.03 120.07 1240.12 119.808L1241.02 116.984C1241.1 116.722 1241.35 116.544 1241.62 116.543L1244.59 116.528Z" fill="white"/>
<path d="M1153.11 580.673C1153.2 580.777 1153.21 580.926 1153.14 581.043L1152.38 582.3C1152.31 582.416 1152.17 582.474 1152.04 582.443L1150.61 582.106C1150.47 582.074 1150.38 581.961 1150.37 581.825L1150.24 580.36C1150.23 580.224 1150.31 580.096 1150.44 580.043L1151.79 579.475C1151.92 579.422 1152.06 579.456 1152.15 579.56L1153.11 580.673Z" fill="white"/>
<path d="M1007.19 254.684C1007.46 254.683 1007.71 254.859 1007.79 255.12L1008.72 257.935C1008.81 258.196 1008.72 258.483 1008.5 258.646L1006.11 260.4C1005.88 260.563 1005.58 260.564 1005.36 260.403L1002.95 258.673C1002.73 258.512 1002.64 258.226 1002.72 257.964L1003.62 255.14C1003.71 254.878 1003.95 254.7 1004.22 254.699L1007.19 254.684Z" fill="white"/>
<path d="M1214.32 684.542C1214.42 684.71 1214.41 684.927 1214.28 685.081L1212.93 686.74C1212.8 686.894 1212.59 686.949 1212.41 686.877L1210.41 686.101C1210.23 686.028 1210.11 685.845 1210.12 685.647L1210.24 683.508C1210.25 683.31 1210.39 683.141 1210.58 683.09L1212.65 682.545C1212.85 682.495 1213.05 682.574 1213.16 682.741L1214.32 684.542Z" fill="white"/>
<path d="M1235.6 814.175C1235.88 814.174 1236.12 814.35 1236.21 814.611L1237.14 817.426C1237.23 817.687 1237.13 817.974 1236.91 818.137L1234.52 819.891C1234.3 820.054 1234 820.055 1233.78 819.895L1231.37 818.164C1231.15 818.003 1231.05 817.717 1231.14 817.455L1232.04 814.632C1232.12 814.369 1232.36 814.191 1232.64 814.19L1235.6 814.175Z" fill="white"/>
<path d="M934.043 945.065C934.318 945.064 934.563 945.24 934.649 945.501L935.579 948.316C935.665 948.577 935.573 948.864 935.352 949.027L932.962 950.781C932.74 950.944 932.439 950.945 932.216 950.785L929.809 949.054C929.586 948.894 929.491 948.607 929.575 948.345L930.477 945.522C930.561 945.26 930.804 945.081 931.079 945.08L934.043 945.065Z" fill="white"/>
<path d="M629.217 584.941C629.432 584.94 629.623 585.078 629.69 585.281L630.415 587.476C630.482 587.68 630.411 587.904 630.238 588.031L628.374 589.399C628.201 589.526 627.966 589.527 627.792 589.402L625.915 588.052C625.741 587.927 625.667 587.704 625.733 587.499L626.436 585.297C626.501 585.093 626.691 584.954 626.905 584.953L629.217 584.941Z" fill="#2B004D"/>
<path d="M658.397 689.707C658.664 689.586 658.962 689.8 658.933 690.092L658.571 693.7C658.542 693.992 658.208 694.143 657.97 693.972L655.026 691.854C654.788 691.683 654.824 691.319 655.091 691.198L658.397 689.707Z" fill="#2B004D"/>
</g>
<defs>
<clipPath id="clip0_424_3">
<rect width="1439" height="1080" fill="white"/>
</clipPath>
</defs>
</svg>
