<svg width="599" height="700" viewBox="0 0 599 700" fill="none" xmlns="http://www.w3.org/2000/svg">
<g id="Group 2">
<g id="moon">
<ellipse id="Oval" cx="350.663" cy="419.871" rx="161.147" ry="137.733" fill="white"/>
<path id="Stroke" fill-rule="evenodd" clip-rule="evenodd" d="M214.047 494.971L215.855 496.281C211.773 499.943 205.632 495.389 202.19 491.12C196.654 484.256 191.035 476.96 189.35 468.304C188.392 463.379 188.775 458.303 189.163 453.3L190.724 433.128C191.416 424.189 192.111 415.234 193.658 406.403C197.846 382.502 208.388 359.744 223.911 341.094L224.066 340.907C226.808 337.615 229.801 334.02 229.748 329.752C229.636 320.721 234.837 312.283 241.664 306.372C248.492 300.461 256.853 296.667 265.085 292.954C268.815 291.272 273.685 289.765 276.575 292.661C282.52 298.616 292.442 294.822 300.295 291.798C309.936 288.084 320.234 286.083 330.564 285.916C330.865 285.911 331.168 285.907 331.473 285.903C337.675 285.814 344.657 285.714 348.441 280.909C350.85 277.849 355.457 278.027 359.324 278.489L385.919 281.67C387.952 281.913 390.387 282.468 391.028 284.412C392.746 289.624 398.807 291.751 404.061 293.335C422.74 298.968 440.999 306.615 456.857 317.979C472.716 329.344 486.12 344.632 493.232 362.8C481.668 346.995 469.805 330.892 453.757 319.667C449.164 316.455 444.28 313.682 439.322 311.068C427.62 304.9 415.441 299.582 402.789 295.721C344.056 277.793 276.116 294.42 232.298 337.444C225.945 343.682 219.988 350.553 216.385 358.696L221.145 360.172C213.601 363.544 207.998 370.931 206.785 379.105C209.821 373.905 214.148 369.466 219.268 366.297C217.803 371.193 213.991 375.127 210.255 378.983C205.493 383.897 200.853 388.686 201.345 395.18C203.606 389.246 209.301 384.768 215.601 383.969C205.609 393.732 194.888 405.189 195.206 419.155C198.85 411.09 205.039 404.198 212.666 399.71L201.686 414.465C197.533 420.046 193.16 426.422 194.11 433.313C197.722 426.83 202.887 421.219 209.049 417.083C206.082 423.832 201.845 430.019 196.626 435.227C201.589 434.627 206.367 432.572 210.215 429.381C208.602 431.633 207.148 434.174 207.094 436.943C207.04 439.713 208.834 442.685 211.576 443.083C212.405 441.228 215.008 440.444 216.724 441.533C211.522 446.595 211.469 455.973 216.612 461.094C217.07 458.687 219.1 456.659 221.507 456.204C217.67 462.912 216.98 471.337 219.675 478.58C220.49 474.476 222.767 470.678 226.003 468.025C224.137 477.76 220.013 487.055 214.047 494.971ZM211.774 491.87C215.023 491.836 217.043 488.202 217.382 484.972C217.787 481.107 216.827 477.243 215.874 473.476L210.224 451.126C209.16 451.463 209.037 452.62 208.907 453.832C208.797 454.867 208.682 455.941 207.975 456.578C206.545 454.8 206.382 452.107 207.588 450.169C208.806 448.213 208.009 445.474 206.282 443.949C204.554 442.424 202.151 441.906 199.848 441.83C198.603 441.789 197.279 441.885 196.261 442.601C195.242 443.318 194.707 444.842 195.43 445.855C197.584 448.873 199.204 452.27 200.193 455.842C200.267 456.109 200.339 456.38 200.411 456.651C200.902 458.506 201.408 460.414 202.765 461.736C203.814 462.758 204.082 464.318 204.295 465.767L206.021 477.51C206.335 479.648 206.65 481.828 206.29 483.958C205.93 486.089 204.779 488.201 202.847 489.168L209.017 491.267C209.912 491.571 210.829 491.879 211.774 491.87ZM279.028 299.382C277.813 299.64 276.793 298.571 275.923 297.659L275.823 297.554C274.93 296.622 273.396 295.809 272.456 296.693C261.506 306.996 249.044 315.69 235.593 322.41C233.152 323.629 232.824 326.918 232.823 329.647C232.822 330.558 233.695 331.838 234.264 331.125C237.037 327.65 240.644 324.953 244.208 322.295C254.238 314.818 264.387 307.27 275.885 302.34C277.28 301.742 278.914 300.896 279.028 299.382ZM389.095 287.796C388.474 286.34 386.709 285.814 385.154 285.521C380.915 284.722 376.601 284.361 372.291 283.999C366.371 283.503 360.46 283.007 354.764 281.381C352.939 280.861 351.379 282.71 350.378 284.323C353.38 284.01 356.401 283.881 359.419 283.937C364.671 284.033 369.895 284.687 375.107 285.341C377.756 285.673 380.423 286.009 382.963 286.83C383.259 286.926 383.557 287.029 383.857 287.132C385.591 287.727 387.383 288.342 389.095 287.796ZM333.028 310.181C334.228 310.455 335.372 311.352 335.551 312.57C335.73 313.785 334.9 314.97 333.839 315.588C332.778 316.207 331.524 316.38 330.306 316.542L326.642 317.027C326.274 317.076 325.896 317.128 325.577 317.317C324.655 317.862 324.719 319.34 325.472 320.101C326.226 320.862 327.381 321.051 328.451 321.049C333.437 321.04 338.156 317.452 339.679 312.704C340.041 311.577 340.232 310.324 339.784 309.228C339.557 308.672 339.178 308.19 338.756 307.762C336.795 305.775 333.874 304.899 331.089 305.096C328.304 305.293 325.656 306.479 323.39 308.109C322.303 308.891 321.268 309.806 320.651 310.993C320.034 312.181 319.902 313.688 320.592 314.834C320.856 315.271 321.262 315.658 321.766 315.74C322.27 315.823 322.851 315.498 322.914 314.991C323.088 313.583 324.115 312.394 325.34 311.678C326.565 310.962 327.977 310.648 329.368 310.369C330.575 310.128 331.828 309.907 333.028 310.181ZM234.776 379.822C236.146 371.719 242.691 365.131 250.321 362.079C254.526 360.397 259.337 359.659 263.565 361.28C264.609 361.68 265.619 362.232 266.371 363.059C267.077 363.835 267.522 364.815 267.857 365.81C270.005 372.182 267.825 379.551 263.21 384.441C258.595 389.331 251.875 391.897 245.168 392.377C243.02 392.531 240.712 392.444 238.938 391.223C237.163 390.002 236.282 387.289 237.649 385.624C238.294 385.655 238.643 386.231 238.999 386.821C239.176 387.114 239.355 387.409 239.573 387.644C240.317 388.445 241.549 388.504 242.642 388.458C247.398 388.257 252.226 387.079 256.096 384.309C259.967 381.539 262.749 377.014 262.667 372.255C262.641 370.722 262.308 369.153 261.439 367.889C260.012 365.815 257.316 364.878 254.804 365.044C252.293 365.21 249.937 366.324 247.798 367.651C244.984 369.398 242.383 371.594 240.619 374.398C238.854 377.201 237.992 380.667 238.738 383.894C238.079 385.084 236.118 384.847 235.309 383.754C234.499 382.661 234.549 381.163 234.776 379.822ZM278.574 446.605C275.094 448.844 272.209 452.348 271.673 456.45C271.239 459.769 272.351 463.074 273.448 466.237C274.303 468.706 275.187 471.227 276.817 473.269C279.76 476.957 284.634 478.483 289.292 479.232C290.561 479.436 292.485 478.863 292.033 477.66C287.115 477.57 282.277 475.29 279.076 471.555C275.875 467.82 274.364 462.69 275.028 457.816C275.168 456.79 275.401 455.77 275.832 454.829C276.703 452.925 278.328 451.461 280.086 450.325C283.871 447.879 288.479 446.733 292.969 447.121C297.298 447.494 301.622 449.392 304.265 452.841C306.907 456.29 307.537 461.378 305.205 465.044C304.826 465.64 304.55 466.694 305.245 466.819C308.999 464.796 311.082 460.336 310.872 456.077C310.662 451.818 308.413 447.832 305.323 444.894C303.613 443.268 301.589 441.896 299.296 441.343C296.273 440.615 293.111 441.366 290.104 442.157C286.102 443.209 282.053 444.366 278.574 446.605ZM449.451 451.895C436.869 447.198 423.197 445.447 409.838 446.822C404.236 447.398 398.617 448.542 393.581 451.062C384.078 455.818 377.284 465.608 376.154 476.173C375.024 486.739 379.593 497.744 387.874 504.403C391.014 506.928 394.578 508.818 398.148 510.711L398.148 510.711C400.584 512.003 403.023 513.297 405.331 514.794C405.99 515.424 404.507 516.053 403.639 515.773C395.569 513.168 387.732 509.206 381.976 502.979C374.973 495.404 371.558 484.646 372.909 474.419C374.259 464.192 380.351 454.69 389.08 449.193C395.985 444.844 404.24 443.012 412.394 442.718C420.549 442.424 428.679 443.589 436.743 444.839C441.779 445.619 447.684 447.115 449.451 451.895ZM317.065 467.66C316.494 466.351 314.197 466.01 313.777 467.375C311.108 476.06 302.633 482.627 293.557 483.043C291.505 483.137 289.452 482.947 287.407 482.749C283.005 482.323 278.464 481.82 274.609 479.652C269.064 476.535 265.728 470.134 265.689 463.773C265.65 457.413 268.666 451.232 273.247 446.819C272.612 445.038 269.882 445.899 268.526 447.216C261.013 454.519 259.724 467.124 264.995 476.179C270.267 485.233 281.315 490.309 291.729 489.158C302.144 488.007 311.546 481.034 316.388 471.742C317.048 470.475 317.636 468.969 317.065 467.66ZM251.849 511.64C250.153 518.146 249.992 525.047 251.383 531.625C252.007 534.575 252.075 536.201 252.088 536.505C252.089 536.54 252.09 536.557 252.091 536.557C252.091 536.557 252.092 536.54 252.094 536.505C252.108 536.2 252.181 534.569 252.819 531.614C254.242 525.024 253.904 518.062 251.849 511.64ZM260.862 515.575C258.452 520.627 258.75 526.878 261.631 531.677C262.278 532.755 262.769 533.631 263.131 534.277L263.132 534.278L263.132 534.278C263.619 535.148 263.874 535.602 263.962 535.572C264.058 535.539 263.955 534.929 263.742 533.654L263.741 533.653L263.741 533.651C263.655 533.14 263.552 532.522 263.436 531.792L260.862 515.575ZM267.648 522.027C266.626 525.252 267.378 528.982 269.572 531.558C271.812 534.189 272.543 535.032 271.861 531.645C271.164 528.187 269.717 524.883 267.648 522.027ZM464.034 485.337C460.957 497.691 451.128 507.051 441.597 515.491C442.033 516.43 443.441 516.093 444.342 515.586C453.996 510.153 461.807 501.298 465.371 490.81C468.935 480.321 468.049 468.271 462.423 458.729C461.951 457.928 461.349 457.075 460.437 456.896C459.524 456.718 458.473 457.776 459.009 458.535C464.417 466.194 466.3 476.24 464.034 485.337ZM325.246 373.798C325.223 371.844 325.25 369.729 326.431 368.171C328.055 366.026 331.138 365.801 333.828 365.763C335.029 365.746 336.245 365.731 337.413 366.009C339.901 366.601 341.882 368.437 343.648 370.286C344.039 370.696 344.455 371.2 344.359 371.758C344.239 372.451 343.372 372.769 342.684 372.627C342.226 372.533 341.816 372.306 341.404 372.078C341.197 371.963 340.99 371.848 340.776 371.75C338.302 370.614 335.394 371.859 333.172 373.431C332.823 373.678 332.446 373.995 332.438 374.423C332.429 374.853 332.797 375.186 333.144 375.44C336.147 377.639 339.991 378.658 343.689 378.233C344.573 378.132 345.612 377.808 345.841 376.948C345.931 376.612 345.896 376.216 345.862 375.834C345.806 375.196 345.753 374.595 346.29 374.373C346.57 374.257 346.887 374.341 347.178 374.425C349.179 375.007 351.519 375.943 351.907 377.991C352.019 378.583 351.939 379.199 351.751 379.771C351.2 381.446 349.663 382.753 347.923 383.03C347.15 383.153 346.361 383.086 345.581 383.019C343.544 382.844 341.505 382.669 339.487 382.344C335.78 381.747 332.156 380.643 328.747 379.072C327.564 378.526 326.334 377.856 325.735 376.699C325.279 375.82 325.258 374.788 325.246 373.798ZM401.367 325.608C400.176 322.388 397.298 319.848 393.955 319.065C392.921 318.823 391.753 318.764 390.876 319.363C389.999 319.962 389.697 321.423 390.533 322.078C391.344 322.713 390.854 324.207 389.864 324.49C388.873 324.772 387.807 324.1 387.312 323.196C386.818 322.293 386.765 321.219 386.759 320.189C386.751 318.815 386.877 317.281 387.892 316.355C388.279 316.002 388.761 315.774 389.239 315.56C391.218 314.675 393.405 313.926 395.519 314.401C397.534 314.853 399.14 316.341 400.545 317.854C401.697 319.095 402.786 320.393 403.808 321.743C404.708 322.933 405.573 324.202 405.912 325.655C406.25 327.109 405.958 328.795 404.835 329.778C403.737 330.739 402.046 330.821 400.712 330.227C399.534 329.702 398.528 328.548 398.616 327.26C398.703 325.973 400.284 324.906 401.367 325.608ZM411.998 416.125C414.952 416.04 417.705 413.765 418.343 410.879C418.731 409.124 418.252 407.037 416.723 406.093C415.606 405.403 414.201 405.453 412.891 405.537C411.076 405.654 409.193 405.812 407.617 406.718C406.04 407.624 404.868 409.501 405.362 411.251C406.165 414.095 409.043 416.21 411.998 416.125ZM412.377 411.862C411.806 412.016 410.992 411.869 410.94 411.279C410.918 411.035 411.05 410.803 411.201 410.608C412.041 409.521 413.64 409.099 414.907 409.63C414.466 410.709 413.502 411.559 412.377 411.862ZM413.903 368.143C413.422 367.032 414.354 365.738 415.487 365.313C416.394 364.972 417.379 365.007 418.357 365.043C418.6 365.051 418.843 365.06 419.084 365.063C420.295 365.078 421.632 364.877 422.417 363.955C422.694 363.631 422.882 363.153 422.671 362.782C422.45 362.394 421.929 362.327 421.484 362.304C418.399 362.144 414.757 362.239 412.979 364.765C412.597 365.308 411.661 365.124 411.304 364.565C410.946 364.005 411.028 363.271 411.232 362.639C411.96 360.376 414.051 358.73 416.335 358.07C418.619 357.41 421.071 357.618 423.39 358.143C424.172 358.32 424.983 358.553 425.554 359.115C426.007 359.562 426.261 360.173 426.426 360.787C427.216 363.723 426.05 367.086 423.612 368.903C421.174 370.721 417.618 370.877 415.029 369.281C414.568 368.997 414.119 368.641 413.903 368.143ZM403.33 420.026C404.762 421.743 406.459 423.303 408.517 424.177C412.677 425.943 417.994 424.312 420.448 420.517C421.341 419.135 421.741 417.027 420.42 416.046C418.303 420.494 412.164 422.458 407.859 420.065C407.034 419.607 406.284 419.021 405.602 418.368C402.506 415.403 400.891 410.562 402.707 406.679C403.299 405.413 404.209 404.32 405.203 403.338C407.373 401.197 410.476 399.444 413.372 400.396C413.492 400.435 413.612 400.48 413.732 400.524C414.137 400.673 414.544 400.823 414.97 400.798C415.523 400.766 416.1 400.271 415.958 399.736C415.916 399.578 415.818 399.441 415.717 399.312C413.927 397.032 410.415 396.328 407.884 397.742C404.873 399.424 401.812 401.405 400.211 404.461C397.604 409.434 399.732 415.715 403.33 420.026ZM451.296 343.32C451.164 343.509 451.197 343.774 451.229 344.026C451.266 344.327 451.301 344.61 451.055 344.732C450.154 345.177 449.075 345.131 448.114 344.836C445.491 344.031 443.733 341.624 442.249 339.317C441.381 337.967 440.517 336.534 440.377 334.936C440.237 333.337 441.054 331.538 442.594 331.086C444.31 330.582 445.993 331.858 447.329 333.048C448.836 334.39 450.377 335.773 451.309 337.562C452.242 339.352 452.45 341.664 451.296 343.32ZM445.593 337.331C445.963 337.691 446.165 338.174 446.368 338.657C446.568 339.133 446.767 339.609 447.127 339.968C447.583 340.423 448.275 340.626 448.904 340.491C447.725 338.666 446.359 336.962 444.834 335.415C444.426 335.537 444.392 336.142 444.637 336.49C444.786 336.702 444.994 336.857 445.203 337.013L445.203 337.013C445.338 337.114 445.473 337.215 445.593 337.331ZM221.067 502.224C220.921 504.619 221.105 507.395 223.022 508.838C223.661 508.481 223.617 507.568 223.537 506.841C223.042 502.364 224.431 498.049 225.829 493.705C226.83 490.596 227.836 487.472 228.158 484.264C228.252 483.333 228.004 482.059 227.069 482.023C226.368 481.996 225.917 482.735 225.634 483.376C223.016 489.324 221.461 495.738 221.067 502.224ZM407.015 415.842C409.178 416.799 411.576 417.774 413.839 417.087C414.739 416.814 415.541 416.294 416.329 415.78C416.325 417.103 415.188 418.214 413.92 418.592C412.652 418.97 411.289 418.768 409.996 418.488C408.56 418.177 406.804 417.296 407.015 415.842ZM235.928 526.25C236.48 525.267 236.574 524.101 236.656 522.977L237.309 514.022C237.629 509.627 237.95 505.216 237.663 500.819C237.626 500.264 237.57 499.68 237.247 499.228C236.923 498.776 236.239 498.535 235.796 498.871C235.471 499.117 235.388 499.564 235.332 499.969C234.623 505.053 234.244 510.184 234.198 515.317C234.165 519.039 234.335 522.885 235.928 526.25ZM226.141 518.554C225.567 519.038 224.612 518.612 224.296 517.931C223.98 517.25 224.107 516.455 224.243 515.716C225.66 507.988 227.268 500.294 229.064 492.645C229.109 492.454 229.157 492.255 229.281 492.102C229.754 491.518 230.709 492.105 231.045 492.778C231.869 494.428 231.474 496.397 231.062 498.195L226.636 517.501C226.547 517.886 226.443 518.299 226.141 518.554ZM241.472 518.897C241.225 521.796 241.66 524.704 242.093 527.581C242.248 528.605 242.985 529.966 243.911 529.5L245.714 510.214C245.788 509.43 245.837 508.559 245.351 507.94C244.864 507.32 243.632 507.345 243.477 508.118L242.147 514.731C241.87 516.111 241.592 517.494 241.472 518.897ZM427.711 459.788C422.576 457.144 416.327 456.102 410.993 458.317C407.009 459.971 395.749 467.116 394.251 476.274C393.248 482.405 393.258 488.669 395.404 494.588L395.749 495.517C396.388 497.193 398.424 499.12 399.562 497.734C396.239 491.725 395.618 484.286 397.899 477.809C400.181 471.333 405.328 465.925 411.683 463.326C413.021 462.779 414.418 462.349 415.856 462.213C418.765 461.937 421.669 462.88 424.269 464.212C429.868 467.081 436.805 471.852 439.47 477.55C442.039 483.044 443.931 489.596 441.606 495.198C439.281 500.8 424.008 504.853 424.008 504.853L425.698 507.937C425.698 507.937 434.248 506.251 439.47 502.447C461.392 486.481 432.623 462.316 427.711 459.788Z" fill="#7E6ABF"/>
</g>
<g id="earth">
<ellipse id="Oval_2" cx="39.7305" cy="348.686" rx="39.7305" ry="37.3607" fill="white"/>
<path id="Stroke_2" fill-rule="evenodd" clip-rule="evenodd" d="M40.1906 380.953C32.4376 381.784 24.2258 379.991 18.1723 375.076C13.885 371.595 10.8725 366.753 8.75867 361.651C6.46367 356.112 5.14418 350.17 4.87892 344.18C4.77906 341.925 4.8327 339.628 5.49539 337.47C6.58604 333.919 9.21258 331.069 11.8938 328.498C17.598 323.027 24.3026 318.035 32.1219 316.885C37.4501 316.101 42.8702 317.17 48.0857 318.512C52.1819 319.566 56.2729 320.809 59.9573 322.886C68.0987 327.477 73.7405 336.232 74.5566 345.542C75.3727 354.853 74.3687 361.022 61.8039 372.59C55.2749 376.853 47.9437 380.121 40.1906 380.953ZM53.8629 351.727C52.6054 352.122 51.3521 352.824 50.0539 352.596C47.4018 352.129 46.9272 348.49 47.5161 345.863C49.2019 338.341 54.4451 331.698 61.3694 328.311C59.8019 325.468 55.638 325.259 52.6929 326.625C49.7479 327.992 47.4457 330.454 44.5976 332.013C43.1803 332.789 41.5007 333.338 39.9588 332.855C37.4217 332.06 36.4533 328.737 37.2839 326.212C38.1144 323.686 40.1874 321.802 42.1778 320.039C34.9653 320.292 27.8284 322.456 21.6907 326.253C16.8858 329.225 12.3282 334.098 12.9657 339.712C16.9385 336.514 21.6029 334.18 26.5439 332.917C27.592 332.65 28.9074 332.515 29.5632 333.375C30.0599 334.027 29.9173 334.964 29.599 335.719C28.0197 339.465 23.3751 340.721 20.4944 343.589C20.1161 343.966 19.7533 344.401 19.6618 344.927C19.4823 345.957 20.4645 346.897 21.4963 347.069C22.5281 347.241 23.5639 346.865 24.5426 346.496C26.5752 345.729 28.6079 344.962 30.6405 344.196C32.112 343.64 33.859 343.11 35.1675 343.983C36.5212 344.885 36.6488 346.938 35.8837 348.374C35.1186 349.81 33.7142 350.773 32.3627 351.679C29.1051 353.862 25.8476 356.045 22.59 358.229C19.8625 360.057 16.8069 362.521 17.0661 365.794C17.3101 368.875 20.6995 370.969 23.7838 370.771C26.868 370.573 29.5823 368.687 31.8586 366.597C34.1349 364.506 36.1896 362.119 38.833 360.518C40.558 359.473 43.0192 358.893 44.4204 360.343C45.503 361.464 45.3986 363.265 44.9923 364.77C43.8213 369.105 40.6551 372.858 36.5788 374.742C39.8953 375.507 43.3539 375.652 46.7227 375.165C48.644 374.888 50.633 374.355 52.0223 373C53.4116 371.644 53.9496 369.258 52.7444 367.736C50.9467 365.467 51.0182 362.145 52.1668 359.487C53.3153 356.829 55.3668 354.683 57.3764 352.598C56.8012 351.412 55.1204 351.332 53.8629 351.727ZM69.2172 356.879C71.0233 352.704 71.0891 347.983 70.6317 343.458C70.1259 338.453 68.3811 332.73 63.6662 330.976C56.7568 333.844 51.4248 340.242 49.8493 347.555C49.717 348.169 49.6133 348.83 49.8551 349.41C50.0968 349.991 50.8153 350.414 51.3721 350.122C53.2824 349.121 55.6317 348.553 57.5737 349.491C59.5157 350.429 60.4614 353.356 58.8889 354.832C57.1515 356.463 55.3671 358.159 54.4298 360.35C53.4924 362.54 53.6276 365.376 55.3923 366.977C56.7184 368.18 56.7218 370.542 55.3992 371.749C59.1598 370.651 61.8394 367.417 64.2781 364.351C66.1423 362.007 68.028 359.628 69.2172 356.879ZM25.9252 335.29C22.0132 336.913 18.216 338.812 14.5712 340.969C13.7044 341.481 12.8284 342.024 12.1946 342.807C11.3388 343.864 11.0136 345.243 10.7492 346.577C9.89477 350.887 9.45425 355.527 11.2642 359.531C11.8419 360.809 12.6316 361.978 13.4173 363.139C13.6492 363.482 13.9125 363.849 14.31 363.964C14.7075 364.08 15.2325 363.759 15.1391 363.356C14.8514 362.113 15.7926 360.944 16.7215 360.07C22.1617 354.949 29.4907 352.009 34.3829 346.363C33.6407 345.483 32.233 345.897 31.1748 346.349C28.6545 347.425 26.0558 348.317 23.4061 349.016C22.0393 349.377 20.516 349.67 19.2686 349.005C17.4429 348.031 17.1457 345.369 18.1101 343.538C19.0744 341.708 20.9076 340.526 22.6756 339.452C24.4437 338.377 26.2985 337.255 27.3593 335.479C27.1663 334.974 26.425 335.083 25.9252 335.29ZM39.3133 369.594C41.0421 368.205 42.91 366.567 43.0985 364.357C43.1971 363.202 42.4561 361.789 41.3017 361.899C40.9469 361.933 40.6229 362.109 40.3169 362.291C35.2897 365.295 31.9811 371.167 26.31 372.627C27.9126 373.344 29.5835 373.909 31.2928 374.31C31.8018 374.43 32.3318 374.535 32.8438 374.429C33.4394 374.306 33.9379 373.913 34.4121 373.532C36.0459 372.219 37.6796 370.907 39.3133 369.594ZM43.9886 321.584C42.8699 322.821 41.7512 324.059 40.6325 325.296C39.7464 326.276 38.7958 327.569 39.289 328.795C39.6524 329.698 40.7255 330.154 41.6959 330.079C42.6664 330.004 43.5503 329.507 44.3641 328.973C47.2643 327.07 49.8755 324.478 53.2599 323.718C50.9133 322.863 48.5667 322.008 46.2201 321.153C45.7314 320.974 45.1865 320.797 44.7057 320.995C44.4172 321.114 44.1979 321.353 43.9886 321.584Z" fill="#7E6ABF"/>
</g>
<g id="man">
<path id="Whites" fill-rule="evenodd" clip-rule="evenodd" d="M24.1497 215.479C17.3766 198.564 23.293 188.43 27.0853 175.2C30.2531 164.148 55.026 146.197 66.4273 164.915C69.7815 170.422 68.4359 175.627 75.7667 180.467C93.5127 192.182 83.8317 167.876 84.4916 161.732C84.8135 158.735 82.2811 151.823 83.2239 148.93C84.2131 145.895 89.4856 141.583 89.4856 135.292C89.4856 129 78.7607 126.577 75.7667 125.031C49.1614 111.295 32.2411 88.3511 40.6732 76.7069C52.4213 60.4835 98.4635 86.0094 112.298 88.3511C112.477 88.3815 114.948 75.4834 116.966 72.53C121.003 66.621 125.466 60.8852 130.789 56.1019C133.173 53.9593 136.406 52.6367 139.583 52.208C149.09 50.9251 158.817 49.8732 168.34 51.0351C171.705 51.4456 191.746 28.2519 199.56 20.7704C259.512 -36.6306 379.694 33.3184 314.184 128.369C302.143 145.839 286.746 151.394 284.758 157.569C280.341 171.284 308.146 169.48 319.924 170.945C340.046 173.448 349.963 183.784 337.472 201.5C329.691 212.537 284.041 211.974 264.045 203.993C256.623 201.031 247.45 188.079 240.435 198.704C235.602 206.024 216.758 221.555 196.543 230.341C187.418 234.307 177.026 231.916 169.239 235.458C158.28 240.443 125.925 261.373 112.298 261.367C98.5743 261.362 80.815 244.847 78.7607 243.764C75.6291 242.112 51.4035 237.38 39.4359 218.912C35.8169 213.327 26.6289 221.671 24.1497 215.479Z" fill="white"/>
<ellipse id="Highlights" cx="257.166" cy="117.421" rx="4.20871" ry="4.14854" fill="#FFB61D"/>
<circle id="Highlights_2" cx="226.351" cy="108.761" r="4.08633" fill="#FFB61D"/>
<path id="Stroke_3" fill-rule="evenodd" clip-rule="evenodd" d="M87.6576 173.789C87.3649 179.652 82.8415 186.001 77.0123 185.307C74.3813 182.264 72.3221 178.487 70.287 174.755C66.3786 167.586 62.5591 160.581 54.9494 159.251C47.4753 157.945 40.5147 163.442 35.8597 169.434C29.1179 178.112 24.7612 188.624 23.3878 199.527C22.5804 205.936 25.209 214.825 31.6309 214.12C38.9662 213.314 44.1828 219.084 49.4887 224.953C54.3995 230.385 59.3867 235.901 66.2007 236.366C74.3143 236.92 80.9416 241.781 87.6502 246.701C92.1308 249.987 96.6476 253.3 101.668 255.374C111.111 259.276 122.001 258.521 131.641 255.133C141.281 251.744 149.859 245.908 157.979 239.705L158.404 239.38C162.837 235.99 167.476 232.442 172.988 231.695C201.169 227.877 227.381 211.348 242.971 187.562C265.073 205.23 295.975 211.269 323.102 203.221C327.705 201.855 332.337 200.024 335.751 196.648C339.164 193.272 341.1 188.029 339.422 183.531C337.587 178.611 332.104 175.977 326.892 175.344C324.035 174.997 321.156 175.099 318.274 175.202C315.899 175.287 313.522 175.371 311.155 175.204C296.826 174.191 284.894 164.308 274.045 154.893C289.765 150.071 302.511 137.959 310.927 123.833C319.343 109.707 323.854 93.6142 327.28 77.5319C329.083 69.0687 330.423 59.5347 325.588 52.3584C323.424 49.1465 320.251 46.7981 317.089 44.458C313.528 41.8229 309.981 39.1983 307.906 35.3627C303.913 27.9848 296.13 23.6098 288.749 19.6243C269.431 9.19443 247.242 -1.53996 226.422 5.42539C218.313 8.13857 211.307 13.3376 204.477 18.483C193.135 27.0275 180.985 37.0505 178.825 51.0858C160.267 42.7829 136.257 49.4139 124.59 66.0643C121.922 69.8728 119.873 74.0726 117.826 78.2682C115.417 83.2076 113.01 88.1412 109.599 92.4231C95.8951 86.1795 81.9328 80.5043 67.7595 75.4168C61.4757 73.1613 53.9692 71.1681 48.5538 75.0728C44.2116 78.2037 42.8797 84.3491 44.1543 89.5483C45.4289 94.7475 48.8315 99.1551 52.4804 103.072C60.3967 111.57 69.9057 118.578 80.3656 123.625C80.7028 123.787 81.0424 123.949 81.383 124.111L81.3832 124.112L81.3835 124.112L81.3838 124.112C84.6589 125.672 88.0256 127.276 90.2065 130.14C92.6144 133.302 92.7637 138.593 89.3881 140.691C84.4023 143.79 83.4843 150.743 84.5063 156.524C84.8555 158.499 85.3681 160.456 85.8801 162.41C86.8664 166.174 87.8502 169.929 87.6576 173.789ZM223.018 204.701C210.455 217.892 192.776 225.61 174.699 227.866C156.623 230.122 138.164 227.189 120.897 221.386C125.541 221.383 128.9 215.302 126.429 211.368C116.912 222.462 102.404 227.658 88.5789 232.403C76.0891 236.689 61.1602 233.576 51.9858 224.078C42.8114 214.581 40.3287 198.998 46.7805 187.476C49.585 182.468 54.3416 178.109 60.0604 177.617C65.7791 177.126 71.9369 181.868 71.4065 187.583C68.2243 187.03 64.8754 189.733 64.7443 192.96C77.0553 191.634 88.6291 184.58 95.4492 174.245C97.8033 170.678 99.5922 166.793 101.383 162.904C102.585 160.293 103.788 157.681 105.163 155.162C108.586 148.893 113.5 142.916 120.311 140.762C125.777 139.033 131.686 139.992 137.336 140.966L162.434 145.294C164.313 143.672 161.271 141.073 158.842 140.566C150.997 138.927 143.044 137.917 135.09 136.906H135.089L135.089 136.906L135.089 136.906L135.088 136.906L135.088 136.906C127.712 135.97 120.336 135.033 113.045 133.594C97.8925 130.605 82.6627 125.137 71.6335 114.324C79.1148 110.02 84.8068 102.707 87.1422 94.3983C87.6147 92.7174 86.489 89.9561 85.1239 91.0448C83.5643 96.4388 81.8738 102.064 77.9661 106.096C74.0585 110.128 67.1997 111.9 62.7769 108.44C57.0354 103.95 50.9989 99.0514 48.7283 92.125C46.4576 85.1987 50.0496 75.8966 57.289 75.0474C60.5384 74.6663 63.715 76.009 66.7114 77.3225L96.9421 90.574C105.94 94.518 115.071 98.5014 124.79 99.9325C131.614 100.937 138.554 100.655 145.446 100.371L164.984 99.5652C165.783 99.5322 166.602 99.4949 167.338 99.1811C169.301 98.3437 169.966 95.9463 170.399 93.8565C175.643 68.5567 182.687 41.8575 201.744 24.4106C210.271 16.6036 220.894 11.1069 232.192 8.65486C243.329 6.23778 255.617 6.94837 265.206 13.108C249.121 14.2918 233.503 21.0745 221.657 32.0199C216.681 26.7072 207.418 31.0497 203.448 37.152C197.295 46.6114 197.407 59.7519 203.72 69.1052C209.035 76.9783 211.005 86.3724 212.981 95.7884C214.796 104.442 216.615 113.114 221.037 120.641C228.033 132.548 241.06 140.191 254.665 142.561C268.271 144.93 282.376 142.456 295.307 137.606C280.834 152.042 257.715 157.035 238.575 149.858C237.18 149.335 235.793 148.751 234.405 148.167L234.404 148.166L234.404 148.166L234.403 148.166L234.402 148.166C230.004 146.314 225.592 144.456 220.874 144.511C223.638 147.437 227.168 149.634 231.014 150.821C226.579 158.27 221.926 165.589 217.064 172.765C216.442 173.683 215.733 174.661 214.669 174.972C213.482 175.318 212.244 174.727 211.163 174.129C202.222 169.188 194.209 162.576 187.659 154.736L174.558 170.673C181.281 178.892 189.142 186.179 197.845 192.261C186.261 206.572 168.711 215.894 150.367 217.478C169.355 218.445 188.578 209.538 200.117 194.428C207.422 198.529 215.097 201.972 223.018 204.701ZM283.067 64.5637C287.263 59.9886 288.818 53.4538 288.459 47.2563C288.1 41.0589 286.016 35.0988 283.709 29.3356C289.719 28.6232 295.825 30.8907 300.613 34.5933C305.4 38.296 308.996 43.3342 311.946 48.619C315.522 55.0254 318.263 61.9526 319.452 69.1922C322.253 86.2386 316.273 103.619 307.761 118.651C306.108 121.57 304.33 124.469 301.917 126.799C299.488 129.146 296.499 130.833 293.436 132.256C280.796 138.128 266.256 139.823 252.605 137.015C261.319 129.759 267.474 119.763 271.394 109.122C275.313 98.4814 277.107 87.1718 278.14 75.8792L278.146 75.816V75.8158C278.406 72.9683 278.68 69.9755 280.303 67.624C280.84 66.8455 281.505 66.1706 282.171 65.4953L282.172 65.4944L282.172 65.4939L282.173 65.4935L282.173 65.4933C282.475 65.1868 282.777 64.8802 283.067 64.5637ZM267.296 111.598C263.535 120.395 257.709 128.471 249.811 133.869C248.887 134.502 247.893 135.112 246.781 135.242C245.798 135.356 244.815 135.086 243.871 134.788C237.156 132.669 230.812 128.911 226.504 123.341C224.941 121.32 223.664 119.091 222.526 116.803C214.234 100.142 213.422 79.9288 220.35 62.6566C220.681 61.8316 221.155 60.9052 222.027 60.7322C223.154 60.5084 224.02 61.6621 224.653 62.6216C229.828 70.4638 239.506 74.4341 248.893 74.8452C258.28 75.2563 267.514 72.5884 276.415 69.5798C274.793 73.5466 274.38 77.8682 273.97 82.149V82.1492C273.919 82.6883 273.867 83.2268 273.813 83.7638C272.859 93.2825 271.057 102.802 267.296 111.598ZM265.385 29.881C270.188 28.7891 275.793 28.4886 279.463 31.7741C280.648 32.8353 281.529 34.1964 282.253 35.6128C286.799 44.4964 285.019 56.1966 278.036 63.3258C269.964 71.5676 257.188 72.9263 245.693 71.948C241.568 71.5969 237.327 70.9623 233.806 68.7858C229.25 65.9696 226.552 61.0071 224.057 56.2678C235.133 43.8913 249.189 33.5626 265.385 29.881ZM304.233 179.286C302.725 183.09 301.204 186.947 300.711 191.01C300.217 195.073 300.859 199.433 303.331 202.695C282.826 203.83 261.989 197.507 245.572 185.169C250.866 177.678 255.046 169.401 257.934 160.694C259.075 157.254 263.43 155.82 266.965 156.616C270.219 157.349 272.952 159.437 275.617 161.473C275.847 161.649 276.076 161.824 276.305 161.998C285.033 168.624 294.652 173.967 304.233 179.286ZM160.949 231.248C157.715 234.889 153.85 237.911 149.902 240.761C141.662 246.711 132.675 252.12 122.659 253.848C107.981 256.381 92.1225 250.05 83.2241 238.105L115.24 226.162C116.007 225.876 116.801 225.585 117.618 225.632C118.079 225.658 118.523 225.79 118.968 225.923C119.264 226.011 119.56 226.099 119.863 226.157C120.891 226.351 121.927 226.18 122.969 226.009L122.969 226.009C123.617 225.902 124.267 225.795 124.917 225.776C127.314 225.704 129.516 226.799 131.695 227.882C132.248 228.157 132.8 228.432 133.353 228.686C141.843 232.59 151.631 231.958 160.949 231.248ZM114.721 94.264C114.496 93.7593 114.734 93.1786 114.972 92.6797C121.528 78.9479 130.202 66.2294 140.592 55.112C147.9 65.2596 152.764 77.1549 154.66 89.5157C155.039 91.9866 154.629 95.4036 152.149 95.7127C140.259 97.1947 128.161 96.9933 116.327 95.1165C115.702 95.0173 114.98 94.8422 114.721 94.264ZM159.502 93.4168C157.054 79.9582 151.971 66.9839 144.627 55.4431C150.843 52.1703 158.192 52.1169 165.217 52.1388C169.654 52.1527 174.497 52.309 177.878 55.1818L169.108 81.0604C167.619 85.4537 166.111 89.9702 166.299 94.6051L160.755 94.6941C160.557 94.6972 160.354 94.6992 160.171 94.6231C159.728 94.4379 159.588 93.8898 159.502 93.4168ZM230.836 159.643C232.309 157.138 233.712 154.462 233.86 151.559C240.493 154.543 247.798 156.021 255.069 155.851C256.211 155.825 256.17 157.585 255.702 158.626C254.286 161.777 252.869 164.931 251.23 167.973C249.549 171.094 247.64 174.087 245.733 177.076L241.162 184.241C240.536 185.222 239.89 186.225 238.96 186.924C236.465 188.799 232.903 187.897 230.056 186.618C225.333 184.496 220.985 181.541 217.275 177.93C222.428 172.339 226.983 166.198 230.836 159.643ZM59.3081 165.834C61.5058 168.05 62.9421 170.89 64.3424 173.679L57.7492 174.619C55.5524 174.932 53.3 175.264 51.3583 176.338C49.4692 177.383 48.0123 179.059 46.7302 180.796C41.368 188.06 38.396 197.059 38.3773 206.089C38.3705 209.35 34.516 211.676 31.3613 210.85C28.2066 210.023 26.0635 206.889 25.5181 203.674C24.9728 200.459 25.7408 197.171 26.704 194.055C30.0937 183.09 36.157 172.735 45.128 165.577C46.842 164.209 48.7359 162.929 50.9012 162.583C53.983 162.091 57.1104 163.618 59.3081 165.834ZM336.178 184.188C336.941 185.168 337.505 186.362 337.471 187.603C337.427 189.207 336.41 190.613 335.315 191.786C328.951 198.607 319.169 200.929 309.905 202.024C309.294 202.096 308.654 202.161 308.081 201.937C307.61 201.752 307.233 201.39 306.897 201.012C304.662 198.498 303.776 194.985 303.958 191.626C304.139 188.267 305.298 185.033 306.741 181.994C307.045 181.354 307.398 180.683 308.017 180.339C308.512 180.065 309.102 180.044 309.667 180.029L320.879 179.735C323.64 179.663 326.43 179.593 329.133 180.162C331.835 180.732 334.482 182.009 336.178 184.188ZM211.221 78.249C206.652 69.784 203.234 60.6989 201.09 51.3218L202.936 46.3918C205.22 41.9713 208.098 37.8585 211.47 34.1992C212.843 32.7089 215.223 32.5441 217.118 33.2621C219.012 33.9802 220.537 35.4081 222.008 36.8018L228.627 43.0732C228.824 43.2597 229.03 43.461 229.096 43.724C229.219 44.2192 228.81 44.6727 228.44 45.0244C225.34 47.9717 222.586 51.2946 220.377 54.9577C217.039 60.4943 215.001 66.6989 212.99 72.8433L211.221 78.249ZM228.139 30.7059C241.617 23.4873 256.359 16.6946 271.562 18.3191C279.51 19.1683 287.113 22.3304 293.733 26.8095C274.768 21.9345 253.628 26.4312 238.289 38.6032C235.918 40.4845 232.361 42.5279 230.25 40.3589C229.708 39.802 229.354 39.0217 229.008 38.2615C228.455 37.0438 227.926 35.8776 226.686 35.7635C225.504 35.6548 224.979 34.0511 225.48 32.9752C225.981 31.8993 227.093 31.2663 228.139 30.7059ZM191.114 162.737C193.774 165.293 196.703 167.549 199.626 169.8L211.434 178.895C207.798 182.099 204.24 185.393 200.765 188.772C192.492 183.868 185.108 177.471 179.076 169.981C182.378 166.542 185.548 162.976 188.575 159.293C189.051 160.652 190.076 161.739 191.114 162.737ZM115.191 138.137C108.974 142.995 102.546 148.108 99.1258 155.218C98.4576 156.607 97.9056 158.069 97.3545 159.529L97.3545 159.529L97.3544 159.529L97.3544 159.529L97.3543 159.529C96.1827 162.632 95.015 165.725 92.7433 168.087C91.7364 167.791 91.3404 166.604 91.0951 165.584L88.7291 155.743C88.4099 154.415 88.0885 153.05 88.2698 151.697C88.4504 150.35 89.1146 149.123 89.7672 147.93L96.7088 135.244C96.8636 134.961 97.0241 134.672 97.2721 134.466C97.8862 133.955 98.7949 134.118 99.5703 134.308L115.191 138.137ZM216.197 181.716C220.437 186.075 225.706 189.426 231.452 191.417C232.527 190.406 234.604 190.964 235.028 192.377C233.05 194.943 230.88 197.359 228.54 199.599C227.495 200.599 225.821 200.388 224.411 200.064C217.525 198.484 210.892 195.805 204.839 192.161C204.434 191.917 203.978 191.57 204.018 191.099C204.045 190.782 204.295 190.536 204.529 190.321L213.027 182.494C213.918 181.673 215.352 180.847 216.197 181.716ZM324.699 72.3769C324.62 73.336 324.485 74.4064 323.735 75.0096C323.729 67.4759 321.861 59.9506 318.343 53.2887C317.705 52.0803 317.013 50.8993 316.244 49.7701C316.145 49.6249 316.044 49.4796 315.943 49.3338C315.167 48.2133 314.373 47.0667 314.184 45.7289L323.29 55.2417C324.128 56.117 324.99 57.0301 325.386 58.1752C325.768 59.2794 325.677 60.4838 325.581 61.6484L324.699 72.3769ZM314.236 60.2877L312.174 57.6884C309.905 54.8286 307.121 51.7059 303.471 51.7019C301.352 51.6996 299.404 52.7844 297.566 53.8384L294.71 55.4758C293.93 55.9231 293.13 56.3884 292.58 57.0998C290.994 59.1514 292.151 62.149 293.65 64.265C294.687 65.7292 295.93 67.1352 297.581 67.8399C299.715 68.7515 302.17 68.3483 304.408 67.7312C307.472 66.8862 310.432 65.6671 313.203 64.1096C314.089 63.6116 315.068 62.882 315.023 61.8667C314.997 61.2687 314.608 60.7565 314.236 60.2877ZM296.22 62.2939C295.865 61.729 295.498 61.1254 295.492 60.4583C295.481 59.1537 296.783 58.2782 297.928 57.6535L301.998 55.4335C302.614 55.0978 303.254 54.7545 303.954 54.7073C304.653 54.6601 305.431 54.997 305.666 55.6575C306.36 57.6065 308.07 59.1611 310.076 59.6667C310.726 59.8304 310.935 60.7295 310.628 61.3248C310.321 61.9201 309.692 62.2681 309.092 62.5658C306.947 63.6303 304.704 64.4984 302.401 65.1555C301.478 65.4189 300.501 65.6494 299.567 65.4273C298.039 65.0641 297.055 63.6233 296.22 62.2939ZM267.265 82.3882C263.228 82.8581 262.461 90.1364 264.335 94.0184C264.721 94.8171 265.325 95.6395 266.205 95.7511C267.709 95.942 268.54 94.086 268.873 92.6066L268.881 92.5722C269.319 90.6226 271.278 81.921 267.265 82.3882ZM246.446 91.9357C247.254 90.0528 247.523 87.9428 247.214 85.9175C247.071 84.9766 246.788 84.0211 246.159 83.3066C245.53 82.592 244.491 82.1765 243.595 82.4986C242.785 82.7901 242.275 83.5832 241.892 84.3544C240.537 87.0773 239.997 90.1991 240.359 93.2188C240.527 94.6235 242.297 95.3911 243.64 94.9469C244.983 94.5026 245.889 93.2359 246.446 91.9357ZM258.347 87.6266C258.973 87.1074 259.764 88.0505 260.018 88.8235C260.854 91.3643 261.546 93.9524 262.089 96.5713C262.433 98.2263 262.717 99.9457 262.351 101.596C261.835 103.922 260.066 105.815 258.014 107.027C255.962 108.239 253.627 108.867 251.324 109.481C250.716 109.643 249.951 109.758 249.558 109.267C249.225 108.849 249.39 108.195 249.769 107.819C250.142 107.45 250.66 107.28 251.159 107.116L251.188 107.107C254.778 105.927 258.614 103.799 259.45 100.114C259.909 98.0883 259.35 96.0529 258.789 94.009C258.277 92.1474 257.764 90.2787 258.016 88.4035C258.055 88.1178 258.125 87.8106 258.347 87.6266ZM233.278 79.3387C232.333 78.0294 233.09 76.0397 234.461 75.1858C235.832 74.3319 237.564 74.3435 239.166 74.5503C241.078 74.7971 242.959 75.2835 244.751 75.9943C245.132 76.1456 245.543 76.3383 245.711 76.7127C246.022 77.4063 245.217 78.1655 244.457 78.1649C243.845 78.1644 243.291 77.8699 242.742 77.5788C242.61 77.5083 242.477 77.438 242.344 77.3721C239.353 75.8876 235.386 76.7481 233.278 79.3387ZM267.758 78.8876C269.179 78.6511 270.687 78.9794 271.881 79.7855C272.38 80.1225 273.096 79.5558 273.098 78.9534C273.101 78.351 272.652 77.8444 272.179 77.4719C271.159 76.6695 269.889 76.1894 268.594 76.1162C267.758 76.069 266.832 76.2306 266.294 76.8719C265.756 77.5132 265.918 78.7167 266.725 78.9401C267.013 79.0198 267.315 78.9659 267.612 78.9129C267.661 78.9043 267.709 78.8956 267.758 78.8876ZM250.114 115.825C250.514 115.599 251.042 115.993 251.101 116.449C251.161 116.905 250.901 117.34 250.604 117.691C249.113 119.45 246.545 119.992 244.276 119.579C242.008 119.167 239.974 117.947 238.061 116.661C237.161 116.056 236.275 115.431 235.402 114.787C234.499 114.119 233.535 113.302 233.427 112.183C233.319 111.065 234.752 109.937 235.57 110.708C237.581 112.602 239.638 114.527 242.139 115.698C244.641 116.87 247.708 117.182 250.114 115.825ZM207.051 124.794C198.673 106.581 195.177 86.1483 197.025 66.1857C197.056 65.8446 197.099 65.4793 197.325 65.2213C197.643 64.8573 198.295 64.8725 198.596 65.2509C198.488 76.2322 198.386 87.2796 200.179 98.1141C201.971 108.949 205.778 119.668 212.727 128.171C212.935 128.425 213.146 128.677 213.357 128.931C214.552 130.364 215.758 131.81 216.436 133.539C211.917 133.452 208.941 128.9 207.051 124.794ZM215.27 42.5501C215.115 42.3826 214.934 42.2347 214.725 42.1444C214.121 41.8835 213.412 42.1509 212.883 42.5425C210.774 44.1037 210.766 47.7542 212.868 49.3249C213.893 48.4513 214.946 47.5437 215.547 46.3381C216.147 45.1325 216.184 43.5394 215.27 42.5501ZM233.455 61.7832C235.728 63.6283 238.318 65.0817 241.077 66.0601C249.982 69.2175 259.988 67.2352 268.581 63.3077C269.894 62.7076 271.569 63.0239 272.572 64.0614C267.055 67.993 260.296 70.1541 253.521 70.1525C252.027 70.1522 250.535 70.0498 249.047 69.9198C246.001 69.6537 242.933 69.2635 240.068 68.197C237.203 67.1304 234.529 65.3261 232.907 62.7349L233.455 61.7832ZM330.418 181.79C330.33 182.094 330.574 182.384 330.798 182.606L334.181 185.964C334.55 184.998 334.136 183.874 333.426 183.122C332.717 182.371 331.758 181.914 330.823 181.473C330.64 181.481 330.47 181.615 330.418 181.79Z" fill="#7E6ABF"/>
</g>
<g id="saturn">
<circle id="Oval_3" cx="524.069" cy="105.258" r="55.4573" fill="white"/>
<path id="Vector 7" d="M485.931 145.482C484.991 145.015 481.624 141.007 480.058 139.062C505.311 125.639 515.947 113.967 528.867 105.213C539.204 98.2101 558.232 78.5623 566.454 69.6138C567.825 70.9755 571.323 74.2826 572.263 76.617C573.438 79.535 538.2 108.131 537.025 109.882C536.086 111.283 517.057 126.028 507.661 133.226C507.073 134.393 487.105 146.065 485.931 145.482Z" fill="#FFAE05"/>
<path id="Stroke_4" fill-rule="evenodd" clip-rule="evenodd" d="M552.612 51.192C556.757 52.6285 560.661 48.8906 564.233 46.344C569.76 42.4036 576.969 40.9137 583.605 42.3406C584.706 42.5774 585.859 42.9327 586.584 43.7942C587.247 44.582 587.436 45.6566 587.543 46.6806C588.196 52.9492 586.628 59.4269 583.181 64.7033C581.504 67.2702 579.403 69.5557 577.904 72.23C576.404 74.9044 575.547 78.1717 576.616 81.0457C582.968 98.1325 580.324 118.286 569.78 133.156C559.236 148.027 541.092 157.19 522.866 156.849C513.545 156.675 504.413 154.187 495.631 151.058C491.799 149.693 487.587 148.196 483.783 149.637C476.843 152.267 469.536 153.928 462.14 154.557C460.305 154.712 458.388 154.793 456.694 154.068C454.16 152.984 452.629 150.235 452.338 147.493C452.047 144.752 452.805 142.007 453.763 139.422C456.65 131.623 465.616 119.44 471.043 116.633C470.604 107.163 470.652 97.5808 472.7 88.3237C474.747 79.0666 478.926 70.0841 485.781 63.5341C488.612 60.8287 491.852 58.5769 495.246 56.6229C512.411 46.74 533.897 44.7059 552.612 51.192ZM526.472 50.423C513.346 50.7303 500.569 56.0029 490.308 64.1946C487.295 66.5997 484.464 69.2717 482.203 72.3938C480.42 74.855 479.01 77.5707 477.833 80.372C470.844 96.9943 472.439 116.966 481.978 132.268C482.186 132.601 482.425 132.955 482.796 133.084C483.254 133.244 483.747 133.011 484.175 132.783C514.135 116.817 540.803 94.704 562.04 68.2173C562.545 67.5865 563.078 66.8538 562.968 66.0527C562.887 65.4517 562.458 64.9638 562.039 64.5248C552.977 55.0237 539.598 50.1158 526.472 50.423ZM544.823 149.652C559.053 142.972 569.862 129.77 574.484 114.744C575.531 111.342 576.283 107.824 576.357 104.265C576.419 101.272 576.001 98.2925 575.585 95.328C574.981 91.0302 574.377 86.7323 573.773 82.4344C573.613 81.2949 572.515 79.7908 571.713 80.616C549.448 103.53 525.135 124.453 499.159 143.055C498.295 143.674 497.343 144.44 497.297 145.502C497.243 146.731 498.416 147.623 499.482 148.238C513.1 156.091 530.593 156.333 544.823 149.652ZM457.046 147.903C458.082 149.563 460.326 149.904 462.282 149.958C472.544 150.242 482.696 147.235 491.877 142.642C501.059 138.05 509.368 131.907 517.444 125.569C528.215 117.115 538.664 108.255 548.847 99.1026C561.459 87.7672 573.852 75.7439 582.132 60.9458C583.734 58.0833 585.212 54.9445 584.961 51.674C584.711 48.4034 582.102 45.1015 578.824 45.2294C571.869 45.5007 565.03 48.175 559.736 52.6938C558.683 53.5925 559.427 55.5055 560.723 55.992C562.019 56.4784 563.464 55.9951 564.73 55.4361C565.996 54.8771 567.315 54.2234 568.691 54.3764C570.793 54.6101 572.286 56.7618 572.411 58.8729C572.536 60.9839 571.602 63.0128 570.502 64.819C568.467 68.1617 565.808 71.0753 563.122 73.9214C539.242 99.2205 511.695 121.053 481.611 138.523C478.901 140.096 476.16 141.64 473.244 142.786C471.715 143.387 469.962 143.87 468.469 143.182C466.022 142.055 465.825 138.619 466.56 136.026C467.662 132.133 470.044 128.614 473.249 126.145C472.642 124.435 472.035 122.725 471.428 121.015C463.518 126.067 457.966 134.661 456.613 143.95C456.418 145.29 456.33 146.754 457.046 147.903ZM479.538 136.168C479.594 135.991 479.492 135.808 479.393 135.651C478.371 134.027 477.349 132.404 476.327 130.78C475.865 130.045 474.971 129.213 474.277 129.736C471.779 131.617 469.991 134.419 469.337 137.477C469.208 138.08 469.133 138.754 469.461 139.276C470.073 140.248 471.533 140.032 472.614 139.644C474.918 138.819 477.137 137.757 479.226 136.482C479.355 136.403 479.492 136.312 479.538 136.168ZM568.435 58.8777C568.332 58.456 567.83 58.2727 567.396 58.2538C566.08 58.1964 564.704 59.2788 564.787 60.5941C564.87 61.9094 566.826 62.7376 567.642 61.7034C567.889 61.3912 567.993 60.9931 568.092 60.6076C568.189 60.2256 568.286 59.8436 568.384 59.4617C568.432 59.2703 568.481 59.0696 568.435 58.8777Z" fill="#7E6ABF"/>
</g>
</g>
</svg>
